HIERARCHY
ROOT Hips
{
	OFFSET 0.000000 0.000000 0.000000
	CHANNELS 6 Xposition Yposition Zposition Zrotation Yrotation Xrotation 
	JOINT LHipJoint
	{
		OFFSET 0.000000 0.000000 0.000000
		CHANNELS 3 Zrotation Yrotation Xrotation
		JOINT LeftUpLeg
		{
			OFFSET 1.363060 -1.794630 0.839290
			CHANNELS 3 Zrotation Yrotation Xrotation
			JOINT LeftLeg
			{
				OFFSET 2.448110 -6.726130 0.000000
				CHANNELS 3 Zrotation Yrotation Xrotation
				JOINT LeftFoot
				{
					OFFSET 2.562200 -7.039590 0.000000
					CHANNELS 3 Zrotation Yrotation Xrotation
					JOINT LeftToeBase
					{
						OFFSET 0.157640 -0.433110 2.322550
						CHANNELS 3 Zrotation Yrotation Xrotation
						End Site
						{
							OFFSET 0.000000 0.000000 0.000000
						}
					}
				}
			}
		}
	}
	JOINT RHipJoint
	{
		OFFSET 0.000000 0.000000 0.000000
		CHANNELS 3 Zrotation Yrotation Xrotation
		JOINT RightUpLeg
		{
			OFFSET -1.305520 -1.794630 0.839290
			CHANNELS 3 Zrotation Yrotation Xrotation
			JOINT RightLeg
			{
				OFFSET -2.542530 -6.985550 0.000000
				CHANNELS 3 Zrotation Yrotation Xrotation
				JOINT RightFoot
				{
					OFFSET -2.568260 -7.056230 0.000000
					CHANNELS 3 Zrotation Yrotation Xrotation
					JOINT RightToeBase
					{
						OFFSET -0.164730 -0.452590 2.363150
						CHANNELS 3 Zrotation Yrotation Xrotation
						End Site
						{
							OFFSET 0.000000 0.000000 0.000000
						}
					}
				}
			}
		}
	}
}
MOTION
Frames: 11
Frame Time: 0.008333
25.774450 16.654245 1.424231 159.774676 -83.843317 -130.863670 -7.808692 -0.919115 0.849751 -12.315946 -3.292468 -54.182276 -2.958914 0.584785 22.599224 0.434013 2.541037 1.521333 0.934900 -0.000000 -24.522400 11.665116 -2.436363 -2.206131 4.624584 -3.684824 -7.855655 1.709150 -1.611983 22.120091 0.115562 2.944013 2.684587 0.360600 0.000001 -76.254700
25.624270 16.682593 1.437419 159.437720 -83.850814 -130.440875 -7.777677 -0.872110 0.807989 -12.486877 -3.313626 -53.660359 -2.989693 0.556329 22.807635 0.447193 2.431468 0.592334 0.847200 0.000000 -24.467100 11.808571 -2.445312 -2.338044 4.352115 -4.369812 -8.953585 1.548620 -1.845778 24.150792 0.098423 3.100609 4.759995 0.512199 0.000000 -78.028199
25.475620 16.711410 1.452791 159.290987 -83.851644 -130.213319 -7.763333 -0.830339 0.772185 -12.616855 -3.330029 -53.084302 -3.016677 0.518510 22.898332 0.461597 2.340199 -0.243230 0.769800 -0.000000 -24.353000 11.933253 -2.438176 -2.468261 4.114435 -5.030973 -10.100310 1.375529 -2.067942 26.240453 0.054416 3.202779 6.941522 0.681200 -0.000001 -79.158100
25.328658 16.740391 1.469923 159.324287 -83.845504 -130.169841 -7.764320 -0.793971 0.738912 -12.712622 -3.333936 -52.471590 -3.038227 0.475119 22.895083 0.476881 2.273401 -0.963776 0.704600 0.000000 -24.192100 12.039148 -2.413159 -2.592605 3.913353 -5.646108 -11.280312 1.193389 -2.274254 28.367532 -0.018435 3.227364 9.191299 0.853400 0.000001 -79.583500
25.183196 16.769354 1.488101 159.470128 -83.832038 -130.247707 -7.775085 -0.760801 0.705714 -12.787817 -3.324291 -51.828601 -3.054410 0.428071 22.814699 0.493277 2.238446 -1.563195 0.652399 -0.000000 -24.004601 12.131125 -2.368008 -2.708875 3.740021 -6.208468 -12.479279 1.007426 -2.462167 30.514689 -0.119202 3.159469 11.455515 1.011099 -0.000000 -79.294900
25.039383 16.798207 1.506879 159.708643 -83.815219 -130.426819 -7.794280 -0.730669 0.670328 -12.847189 -3.296422 -51.165244 -3.065411 0.379675 22.678724 0.510219 2.231260 -2.053754 0.611400 0.000000 -23.812000 12.207727 -2.303689 -2.815047 3.599064 -6.704072 -13.677215 0.824506 -2.629429 32.654265 -0.245111 2.973968 13.662614 1.128200 -0.000001 -78.332800
24.897069 16.826967 1.525374 159.899627 -83.792146 -130.574084 -7.809928 -0.699015 0.630160 -12.913828 -3.263414 -50.466213 -3.073772 0.328121 22.486594 0.529313 2.262502 -2.450819 0.581500 -0.000000 -23.639900 12.281585 -2.216946 -2.915701 3.461933 -7.155426 -14.869520 0.649850 -2.779084 34.784627 -0.391107 2.668460 15.752328 1.185901 0.000000 -76.822400
24.755873 16.855680 1.543769 160.112108 -83.773115 -130.756026 -7.829702 -0.669184 0.585604 -12.973427 -3.213736 -49.746825 -3.079263 0.276321 22.263671 0.548583 2.309621 -2.789299 0.556700 -0.000000 -23.499200 12.340065 -2.115958 -3.008190 3.357736 -7.539206 -16.030298 0.489880 -2.910609 36.865833 -0.550975 2.206606 17.625690 1.149301 0.000000 -74.883300
24.616296 16.884463 1.561443 160.238023 -83.755352 -130.874404 -7.844650 -0.638124 0.535130 -13.041650 -3.160684 -48.986298 -3.084460 0.221567 22.001083 0.569357 2.377641 -3.091783 0.536000 0.000000 -23.401500 12.392681 -2.000385 -3.097987 3.263338 -7.877178 -17.155676 0.346116 -3.029737 38.895823 -0.718682 1.587106 19.225573 1.004301 0.000000 -72.727700
24.477908 16.913414 1.578392 160.280706 -83.741057 -130.933440 -7.855656 -0.606361 0.478935 -13.115500 -3.106381 -48.177865 -3.090168 0.163321 21.700091 0.591300 2.457796 -3.383459 0.516200 -0.000000 -23.347000 12.437553 -1.875157 -3.186977 3.181705 -8.169924 -18.235617 0.219057 -3.140383 40.859469 -0.888325 0.802867 20.484421 0.739200 0.000000 -70.505000
24.340178 16.942499 1.595062 160.311588 -83.735573 -131.000853 -7.870185 -0.576101 0.421002 -13.179886 -3.047269 -47.332313 -3.095925 0.102777 21.370340 0.613088 2.533865 -3.686965 0.493500 0.000000 -23.323400 12.466348 -1.748210 -3.273997 3.132483 -8.412239 -19.267987 0.107282 -3.244890 42.741102 -1.054897 -0.146922 21.349290 0.353200 -0.000000 -68.352300
